<svg width="18" height="18" viewBox="0 0 18 18" fill="none" xmlns="http://www.w3.org/2000/svg">
<path d="M2.40899 10.4932C2.11583 10.4932 1.84489 10.4938 1.57395 10.4932C0.869084 10.4911 0.322443 10.0942 0.0964841 9.41956C-0.130533 8.74329 0.0472705 8.06226 0.585445 7.54579C3.02654 5.20266 5.46764 2.85953 7.90821 0.515868C8.62366 -0.170985 9.37774 -0.172043 10.0916 0.513223C12.5375 2.86165 14.9833 5.20954 17.4292 7.55744C17.9525 8.06014 18.1282 8.74699 17.9054 9.41691C17.6805 10.0916 17.1339 10.4906 16.4296 10.4927C16.1586 10.4938 15.8877 10.4927 15.5924 10.4927C15.5924 10.5996 15.5924 10.6853 15.5924 10.771C15.5924 12.6104 15.5945 14.4498 15.5913 16.2897C15.5898 17.1284 15.15 17.7639 14.4462 17.9475C14.2991 17.9862 14.1435 17.9946 13.9916 17.9962C13.3603 18.0015 12.729 18.0005 12.0972 17.9978C11.1108 17.9941 10.4895 17.3099 10.4869 16.2278C10.4853 15.4875 10.498 14.7472 10.4811 14.0074C10.4588 13.0353 9.6836 12.2881 8.81998 12.3823C8.12941 12.458 7.54308 13.1221 7.52403 13.8947C7.50392 14.6927 7.51979 15.4922 7.51397 16.2907C7.50762 17.1226 7.06047 17.7666 6.36195 17.9481C6.21484 17.9862 6.05926 17.9946 5.90739 17.9962C5.27608 18.0015 4.64477 18.0005 4.01293 17.9978C3.02284 17.9936 2.41058 17.3173 2.41005 16.2262C2.40899 14.4085 2.40952 12.5914 2.40952 10.7737C2.40899 10.688 2.40899 10.6017 2.40899 10.4932Z" fill="white"/>
</svg>
