<svg width="16" height="16" viewBox="0 0 16 16" fill="none" xmlns="http://www.w3.org/2000/svg">
<path d="M15.8956 3.77011C15.6409 3.04731 15.0557 2.63538 14.2707 2.63538C10.8018 2.63483 7.33291 2.63483 3.864 2.63483C3.78215 2.63483 3.70029 2.63483 3.59505 2.63483C3.51371 2.21466 3.43795 1.81262 3.35762 1.41223C3.19035 0.581231 2.57467 0.0265007 1.7912 0.00672816C1.45514 -0.00205964 1.11857 -0.00260888 0.783015 0.0072774C0.338153 0.0199099 0.00514201 0.391195 5.78681e-05 0.863539C-0.00502627 1.34852 0.325443 1.72914 0.776406 1.74781C1.00418 1.75715 1.23296 1.75111 1.46124 1.75111C1.77544 1.75166 1.77239 1.75166 1.83747 2.08944C2.52942 5.70013 3.12528 8.63635 3.79943 12.2509C3.9545 13.0835 4.54579 13.792 5.53719 13.8096C5.34705 14.0398 5.23062 14.3424 5.22808 14.6752C5.22249 15.4101 5.75581 15.9961 6.43403 15.9994C7.11023 16.0033 7.6588 15.4178 7.66084 14.6911C7.66185 14.3517 7.53831 14.0387 7.338 13.8025C8.63445 13.7986 9.93141 13.8003 11.2279 13.8019C11.0311 14.0337 10.9096 14.3407 10.9071 14.6758C10.902 15.4057 11.4414 15.9961 12.1166 16C12.7938 16.0038 13.3403 15.42 13.3413 14.6922C13.3419 14.3512 13.2203 14.0392 13.0216 13.8036C13.1954 13.8036 13.3693 13.8041 13.5432 13.8041C13.6378 13.8041 13.7338 13.8008 13.8269 13.7833C14.3099 13.6926 14.6042 13.1813 14.4685 12.6749C14.3648 12.2877 14.0465 12.0477 13.6276 12.0477C10.9706 12.0471 8.31313 12.0471 5.65616 12.0471C5.58041 12.0471 5.50516 12.0471 5.41822 12.0471L5.27434 10.6668C5.36687 10.6668 5.44161 10.6668 5.51635 10.6668C8.02791 10.6668 10.539 10.6668 13.0505 10.6668C13.9438 10.6668 14.5453 10.1703 14.7619 9.24156C15.1579 7.54331 15.5494 6.5811 15.9414 4.88176C16.0273 4.50608 16.0242 4.13535 15.8956 3.77011Z" fill="#2E7BFF"/>
</svg>
