<svg width="12" height="10" viewBox="0 0 12 10" fill="none" xmlns="http://www.w3.org/2000/svg">
<path fill-rule="evenodd" clip-rule="evenodd" d="M11.4717 2.09951C11.3804 2.08285 11.2878 2.07517 11.1951 2.07657C9.86126 2.07535 8.52755 2.07535 7.19395 2.07657H6.49939H6.33312L6.24364 2.07638C6.14275 2.07605 6.03983 2.07572 5.93728 2.07902C5.81426 2.08537 5.69563 2.12663 5.5954 2.19793C5.49518 2.26924 5.41756 2.3676 5.3717 2.48141C5.32584 2.59521 5.31367 2.7197 5.33661 2.84017C5.35956 2.96065 5.41666 3.07206 5.50118 3.16127C5.62903 3.29097 5.81374 3.36224 6.02118 3.36255H10.1809C10.2072 3.36252 10.2331 3.3686 10.2567 3.38032C10.2802 3.39203 10.3007 3.40905 10.3164 3.43003C10.3322 3.451 10.3428 3.47534 10.3474 3.50112C10.3521 3.5269 10.3506 3.55339 10.3431 3.57851L10.211 4.02297L9.8422 5.15753L9.57729 5.99782L9.57145 6.01709L9.56357 6.04328C9.51937 6.19015 9.47687 6.33141 9.43684 6.47348C9.42688 6.50881 9.40556 6.53991 9.37613 6.56201C9.34671 6.58412 9.31081 6.596 9.27395 6.59584C7.91126 6.59339 6.52828 6.59339 5.18986 6.5937H4.48116C4.43996 6.59365 4.40018 6.57865 4.3693 6.55151C4.33841 6.52437 4.31852 6.48695 4.31336 6.44626L4.3109 6.42729L4.29034 6.26678L4.29033 6.26673C4.26656 6.08146 4.24312 5.89878 4.22116 5.71609L4.16369 5.25725C4.08993 4.67034 4.01627 4.08333 3.94272 3.49622L3.84806 2.73149C3.7866 2.22248 3.71991 1.69604 3.65322 1.17816C3.61695 0.897044 3.4427 0.692707 3.16149 0.602774C3.07943 0.576468 2.99707 0.556279 2.91563 0.537007L2.84033 0.519571L2.30773 0.383449L2.2279 0.363197L2.22789 0.363193C1.77773 0.24899 1.3147 0.13152 0.85714 0.0200471C0.518156 -0.0616265 0.186241 0.111509 0.0497873 0.44371C0.044149 0.457392 0.0377887 0.470768 0.0307329 0.483782C0.0275106 0.490654 0.024116 0.497355 0.0206781 0.504142L0.0172104 0.511006C0.00598836 0.533874 0.000104945 0.558971 0 0.584421V0.831889L0.00768322 0.856054C0.102033 1.15308 0.3187 1.33631 0.669977 1.41645C0.875966 1.46302 1.08421 1.51773 1.28661 1.57089L1.31352 1.57796L1.33963 1.58479C1.597 1.65211 1.86219 1.72147 2.12794 1.7771C2.35229 1.8239 2.3566 1.87193 2.34584 1.98633C2.34311 2.02742 2.34673 2.06869 2.3566 2.10869C2.3566 2.11341 2.3578 2.11813 2.35901 2.12285L2.35901 2.12285C2.35991 2.12639 2.36081 2.12993 2.36121 2.13347L2.49612 3.14291L2.7048 4.70297C2.74004 4.96808 2.77569 5.23237 2.81175 5.49585L2.81747 5.53809C2.89437 6.10613 2.9737 6.69216 3.04747 7.27003C3.11355 7.78485 3.40674 8.04578 3.91906 8.04578H5.44955L6.22454 8.04564H6.22463C7.31287 8.04535 8.42232 8.04506 9.51674 8.04975H9.53303C10.0441 8.04975 10.3232 7.93933 10.5199 7.3361C10.7348 6.67681 10.9614 6.00896 11.1807 5.36277L11.1812 5.36126C11.242 5.18261 11.346 4.88355 11.4589 4.55875L11.459 4.55873C11.6317 4.06208 11.8253 3.50525 11.9173 3.22673C11.97 3.06689 11.9978 2.9 12 2.73179C12.0033 2.40051 11.8057 2.16497 11.4717 2.09951ZM4.78695 8.306H4.78511C4.55941 8.306 4.34296 8.39524 4.18337 8.55409C4.02377 8.71294 3.93412 8.92838 3.93412 9.15302C3.93412 9.37767 4.02377 9.59311 4.18337 9.75196C4.34296 9.9108 4.55941 10 4.78511 10H4.79433C5.02003 9.99907 5.23609 9.9089 5.39499 9.74936C5.55389 9.58983 5.64261 9.374 5.64163 9.14935C5.64066 8.92471 5.55006 8.70965 5.38978 8.55149C5.22949 8.39334 5.01265 8.30503 4.78695 8.306ZM8.84431 8.29132H8.84677L8.84738 8.29163C9.07033 8.29477 9.28313 8.38488 9.44002 8.54258C9.5969 8.70028 9.68534 8.91296 9.68631 9.13489C9.68728 9.35682 9.60069 9.57026 9.44519 9.7293C9.28968 9.88835 9.07767 9.98029 8.85476 9.98536H8.84431C8.61861 9.98536 8.40216 9.89612 8.24256 9.73728C8.08297 9.57843 7.99331 9.36299 7.99331 9.13834C7.99331 8.9137 8.08297 8.69826 8.24256 8.53941C8.40216 8.38056 8.61861 8.29132 8.84431 8.29132Z" fill="white"/>
</svg>
