<svg width="21" height="20" viewBox="0 0 21 20" fill="none" xmlns="http://www.w3.org/2000/svg">
<path fill-rule="evenodd" clip-rule="evenodd" d="M0.5 4C0.5 1.79086 2.29086 0 4.5 0H16.5C18.7091 0 20.5 1.79086 20.5 4V12C20.5 14.2091 18.7091 16 16.5 16H4.5C2.29086 16 0.5 14.2091 0.5 12V4ZM9.42527 5.16736C8.85088 4.7707 8 5.12372 8 5.7587V10.2413C8 10.8763 8.85087 11.2293 9.42527 10.8326L12.6708 8.59132C13.1097 8.28816 13.1097 7.71181 12.6708 7.40866L9.42527 5.16736ZM1.5 18C0.947715 18 0.5 18.4477 0.5 19C0.5 19.5523 0.947715 20 1.5 20H19.5C20.0523 20 20.5 19.5523 20.5 19C20.5 18.4477 20.0523 18 19.5 18H1.5Z" fill="#34CEC5"/>
</svg>
