<svg width="20" height="20" viewBox="0 0 20 20" fill="none" xmlns="http://www.w3.org/2000/svg">
<path fill-rule="evenodd" clip-rule="evenodd" d="M19.9948 5.15845V4.23682C19.9948 3.61011 19.7148 3.27832 19.2148 3.11857C16.8148 2.39355 14.4248 1.66853 12.0247 0.931226C11.6967 0.830449 11.3675 0.733977 11.0379 0.637397L11.0379 0.637384L11.0378 0.637377C10.4029 0.451322 9.76664 0.264864 9.1347 0.0464583C8.52469 -0.150157 7.99468 0.292227 7.99468 1.09098C7.99468 1.48421 7.97468 1.88972 7.93468 2.28295C7.85468 3.0817 7.68468 3.84359 7.12467 4.34741C6.84467 4.59318 6.52467 4.80208 6.20466 4.97412C4.34464 5.94491 2.48462 6.90341 0.624602 7.8619C0.334599 8.02165 0.0945967 8.23056 0.024596 8.63608C-0.0854052 9.18906 0.174598 9.64373 0.694603 9.84034C4.05464 11.1061 7.41468 12.3718 10.7747 13.6498C11.0947 13.7726 11.3747 13.7481 11.6747 13.576C12.2748 13.2319 12.8748 12.8909 13.4748 12.5499C14.0748 12.2089 14.6748 11.8679 15.2748 11.5239C15.5321 11.3801 15.7904 11.2395 16.0485 11.099C16.6728 10.759 17.2963 10.4195 17.9048 10.037C18.7448 9.50856 19.4248 8.7221 19.6748 7.56698C19.8448 6.79281 19.9948 5.90625 19.9948 5.17074C19.9848 5.17074 19.9898 5.16766 19.9948 5.16459C19.9998 5.16152 20.0048 5.15845 19.9948 5.15845ZM19.9013 11.3828C20.1064 11.7427 19.9808 12.2007 19.6209 12.4057L11.9822 16.7576C11.6576 16.9426 11.2673 16.9726 10.9182 16.8395L0.482486 12.8611C0.0954443 12.7135 -0.0986999 12.2802 0.0488526 11.8931C0.196405 11.5061 0.629779 11.3119 1.01682 11.4595L11.3423 15.3959L18.8784 11.1024C19.2383 10.8973 19.6963 11.0229 19.9013 11.3828ZM19.6209 15.4842C19.9808 15.2791 20.1064 14.8212 19.9013 14.4613C19.6963 14.1014 19.2383 13.9758 18.8784 14.1809L11.3423 18.4744L1.01682 14.538C0.629779 14.3904 0.196405 14.5846 0.0488526 14.9716C-0.0986999 15.3587 0.0954443 15.792 0.482486 15.9396L10.9182 19.918C11.2673 20.0511 11.6576 20.021 11.9822 19.8361L19.6209 15.4842Z" fill="#FF6997"/>
</svg>
