<svg width="26" height="27" viewBox="0 0 26 27" fill="none" xmlns="http://www.w3.org/2000/svg">
<path fill-rule="evenodd" clip-rule="evenodd" d="M13.001 0.5C5.83245 0.5 0 6.332 0 13.5C0 20.668 5.83245 26.5 13.001 26.5C14.8431 26.5 16.5953 26.112 18.1834 25.42C17.5894 24.902 17.1353 24.228 16.8853 23.462C15.6812 23.934 14.3711 24.196 13.001 24.196C7.10255 24.196 2.30618 19.398 2.30618 13.502C2.30618 7.606 7.10455 2.808 13.001 2.808C18.8995 2.808 23.6958 7.606 23.6958 13.502C23.6958 15.114 23.3358 16.642 22.6938 18.014C23.4398 18.31 24.0839 18.804 24.5639 19.432C25.48 17.652 26 15.638 26 13.504C26.002 6.332 20.1696 0.5 13.001 0.5ZM21.0123 18.9375C19.3257 18.9375 17.9568 20.3064 17.9568 21.993C17.9568 23.6797 19.3257 25.0486 21.0123 25.0486C22.699 25.0486 24.0679 23.6797 24.0679 21.993C24.0679 20.3064 22.701 18.9375 21.0123 18.9375ZM22.2345 22.4004H21.4197V23.2153C21.4197 23.4393 21.2364 23.6227 21.0123 23.6227C20.7883 23.6227 20.6049 23.4393 20.6049 23.2153V22.4004H19.7901C19.566 22.4004 19.3827 22.2171 19.3827 21.993C19.3827 21.769 19.566 21.5856 19.7901 21.5856H20.6049V20.7708C20.6049 20.5468 20.7883 20.3634 21.0123 20.3634C21.2364 20.3634 21.4197 20.5468 21.4197 20.7708V21.5856H22.2345C22.4586 21.5856 22.642 21.769 22.642 21.993C22.642 22.2171 22.4586 22.4004 22.2345 22.4004ZM15.5962 10.0551C15.5962 11.4889 14.4338 12.6513 13 12.6513C11.5661 12.6513 10.4037 11.4889 10.4037 10.0551C10.4037 8.6212 11.5661 7.45882 13 7.45882C14.4338 7.45882 15.5962 8.6212 15.5962 10.0551ZM7.8 17.0819C7.8 14.8727 9.59086 13.0819 11.8 13.0819H14.2C16.4091 13.0819 18.2 14.8727 18.2 17.0819V17.5412C18.2 18.6458 17.3046 19.5412 16.2 19.5412H9.8C8.69543 19.5412 7.8 18.6458 7.8 17.5412V17.0819Z" fill="url(#paint0_linear_1583_1571)"/>
<defs>
<linearGradient id="paint0_linear_1583_1571" x1="19.6875" y1="2.1875" x2="-1.85276" y2="23.5488" gradientUnits="userSpaceOnUse">
<stop offset="0.316666" stop-color="#F03870"/>
<stop offset="0.653356" stop-color="#FFB800"/>
<stop offset="0.9625" stop-color="#6DF4EC"/>
</linearGradient>
</defs>
</svg>
